<svg width="40" height="40" viewBox="0 0 40 40" fill="none" xmlns="http://www.w3.org/2000/svg">
  <!-- Seed — soft circle at the base -->
  <circle cx="20" cy="32" r="5" fill="#2D2926" opacity="0.25"/>
  <!-- Stem — rising from the seed -->
  <path d="M20 34 L20 16" stroke="#2D2926" stroke-width="2.8" stroke-linecap="round"/>
  <!-- Left leaf -->
  <path d="M20 20 C17 18 11 13 8 7 C12 9 17 12 20 17" fill="#2D2926" opacity="0.75"/>
  <!-- Right leaf -->
  <path d="M20 18 C23 15 28 10 32 5 C29 8 24 12 20 16" fill="#2D2926" opacity="0.55"/>
  <!-- Center leaf -->
  <path d="M20 14 C18.5 10 18 6 19.5 3 C20.5 3 21 6 21.5 10 C21.5 12 20 14 20 14" fill="#2D2926" opacity="0.92"/>
  <!-- Seed dot -->
  <circle cx="20" cy="34" r="2.5" fill="#2D2926"/>
</svg>
